# xmcd
#
# Track frame offsets: 
#        150
#        11951
#        28599
#        39967
#        57338
#        73398
#        86566
#        101619
#        117895
#        135671
#        153390
#        169905
#        184445
#        197200
#        206710
#        221412
#        235470
#        250521
#        259928
#        272753
#        282724
#        306039
#        323623
#        335773
#
# Disc length: 4773 seconds
#
# Revision: 0
# Processed by: cddbd v1.5.2PL0 Copyright (c) Steve Scherf et al.
# Submitted via: ExactAudioCopy v0.95b3
#
DISCID=7312a318
DTITLE=The Byrds  - There Is A Season [CD3]
DYEAR=1900
DGENRE=
TTITLE0=You Ain't Going Nowhere
TTITLE1=I Am A Pilgrim
TTITLE2=The Christian Life
TTITLE3=You Don't Miss Your Water
TTITLE4=Hickory Wind
TTITLE5=One Hundred Years From Now
TTITLE6=Lazy Days (Alternate Version)
TTITLE7=Pretty Polly (Alternate Version)
TTITLE8=This Wheel's On Fire (Version One)
TTITLE9=Drug Store Truck Drivin' Man
TTITLE10=Candy
TTITLE11=Child Of The Universe (Soundtrack Version\\Vinyl Source)
TTITLE12=Pretty Boy Floyd (Live)
TTITLE13=Buckaroo (Live)
TTITLE14=King Apathy III (Live)
TTITLE15=Sing Me Back Home (Live)
TTITLE16=Lay Lady Lay
TTITLE17=Oil In My Lamp
TTITLE18=Tulsa County
TTITLE19=Jesus Is Just Alright
TTITLE20=Chestnut Mare
TTITLE21=Just A Season
TTITLE22=Kathleen's Song
TTITLE23=All The Things
EXTD=
EXTT0=
EXTT1=
EXTT2=
EXTT3=
EXTT4=
EXTT5=
EXTT6=
EXTT7=
EXTT8=
EXTT9=
EXTT10=
EXTT11=
EXTT12=
EXTT13=
EXTT14=
EXTT15=
EXTT16=
EXTT17=
EXTT18=
EXTT19=
EXTT20=
EXTT21=
EXTT22=
EXTT23=
PLAYORDER=
